<svg xmlns="http://www.w3.org/2000/svg" width="900" height="90" viewBox="0 0 900 90" role="img" aria-labelledby="title desc">
  <title id="title">Release</title>
  <desc id="desc">Section divider for Release</desc>
  <defs>
    <linearGradient id="line" x1="0" y1="0" x2="1" y2="0">
      <stop offset="0" stop-color="#5f6d7a" stop-opacity="0.2"/>
      <stop offset="0.5" stop-color="#7f8b98" stop-opacity="0.85"/>
      <stop offset="1" stop-color="#5f6d7a" stop-opacity="0.2"/>
    </linearGradient>
    <filter id="glow" x="-40%" y="-40%" width="180%" height="180%">
      <feGaussianBlur stdDeviation="2.5" result="blur"/>
      <feMerge>
        <feMergeNode in="blur"/>
        <feMergeNode in="SourceGraphic"/>
      </feMerge>
    </filter>
  </defs>

  <line x1="16" y1="58" x2="372" y2="58" stroke="url(#line)" stroke-width="2"/>
  <line x1="528" y1="58" x2="884" y2="58" stroke="url(#line)" stroke-width="2"/>

  <g transform="translate(431 9)" fill="none" stroke="#6ee7ff" stroke-width="3" stroke-linecap="round" stroke-linejoin="round" filter="url(#glow)">
    <path d="M24 5c6.5 1.8 11.2 6.5 13 13-5.6.2-10.7 2.5-14.6 6.4l-8.4 8.4-7-7 8.4-8.4C19.3 13.5 21.6 10.6 24 5z"/>
    <path d="M14 33l-5 5"/>
    <path d="M7 26l-5 5"/>
    <path d="M27 14h.1"/>
    <path d="M23 24l-8-8"/>
  </g>

  <text x="450" y="68" fill="#f2f6fb" font-family="Segoe UI, Arial, sans-serif" font-size="34" font-weight="800" text-anchor="middle">Release</text>
</svg>
