<svg xmlns="http://www.w3.org/2000/svg" width="900" height="90" viewBox="0 0 900 90" role="img" aria-labelledby="title desc">
  <title id="title">Release</title>
  <desc id="desc">Section divider for Release</desc>
  <defs>
    <linearGradient id="line" x1="0" y1="0" x2="1" y2="0">
      <stop offset="0" stop-color="#5f6d7a" stop-opacity="0.2"/>
      <stop offset="0.5" stop-color="#7f8b98" stop-opacity="0.85"/>
      <stop offset="1" stop-color="#5f6d7a" stop-opacity="0.2"/>
    </linearGradient>
    <filter id="glow" x="-40%" y="-40%" width="180%" height="180%">
      <feGaussianBlur stdDeviation="2.5" result="blur"/>
      <feMerge>
        <feMergeNode in="blur"/>
        <feMergeNode in="SourceGraphic"/>
      </feMerge>
    </filter>
  </defs>

  <line x1="16" y1="58" x2="372" y2="58" stroke="url(#line)" stroke-width="2"/>
  <line x1="528" y1="58" x2="884" y2="58" stroke="url(#line)" stroke-width="2"/>

  <g transform="translate(421 9)" fill="none" stroke="#6ee7ff" stroke-width="3" stroke-linecap="round" stroke-linejoin="round" filter="url(#glow)">
    <path d="M14 15h30c5.8 0 9.4 3.7 10.5 9.4l2.4 12.1c.8 4.2-2.3 7.5-6.4 7.5-2.4 0-4.6-1.2-6-3.2L40.5 35h-23l-4 5.8c-1.4 2-3.6 3.2-6 3.2-4.1 0-7.2-3.3-6.4-7.5l2.4-12.1C4.6 18.7 8.2 15 14 15z"/>
    <path d="M19 27h12"/>
    <path d="M25 21v12"/>
    <circle cx="41" cy="25" r="2.3"/>
    <circle cx="49" cy="31" r="2.3"/>
  </g>

  <text x="450" y="68" fill="#f2f6fb" font-family="Segoe UI, Arial, sans-serif" font-size="34" font-weight="800" text-anchor="middle">Release</text>
</svg>
